<svg width="64" height="64" viewBox="0 0 64 64" fill="none" xmlns="http://www.w3.org/2000/svg">
<path d="M61.4048 44.1952L44.5184 27.1851L46.3925 17.9541C46.8761 18.1429 47.3903 18.2416 47.9093 18.2453H47.9221C50.3067 18.2735 52.2625 16.3633 52.2908 13.9788C52.3191 11.5943 50.4088 9.6384 48.0243 9.61013C45.6397 9.582 43.6839 11.4921 43.6556 13.8767C43.6496 14.3869 43.734 14.8941 43.9051 15.3749L33.9851 16.5856L17.8037 0.32C17.6052 0.117467 17.3343 0.00226667 17.0507 0C16.7707 0.00146667 16.5025 0.112933 16.304 0.3104L13.2789 3.3184C12.8625 3.73493 12.8625 4.41013 13.2789 4.82667L14.9067 6.47787C8.60053 18.0737 10.6488 32.4335 19.9456 41.8037C20.0309 41.8853 20.1299 41.9513 20.2379 41.9989C20.1707 42.3599 20.1356 42.7261 20.1333 43.0933V55.4667H7.33333C4.38933 55.4701 2.00347 57.856 2 60.8V62.9333C2 63.5224 2.4776 64 3.06667 64H52.1333C52.7224 64 53.2 63.5224 53.2 62.9333V60.8C53.1965 57.856 50.8107 55.4701 47.8667 55.4667H35.0667V49.9829C37.0719 50.4035 39.1149 50.6179 41.1637 50.6229C46.08 50.6176 50.918 49.392 55.2437 47.056L56.88 48.7019C57.0785 48.9044 57.3495 49.0196 57.6331 49.0219C57.9131 49.0204 58.1812 48.9089 58.3797 48.7115L61.4048 45.7035C61.8212 45.2869 61.8212 44.6117 61.4048 44.1952ZM46.4181 12.4661C47.2535 11.6352 48.6043 11.6389 49.4351 12.4743C50.266 13.3096 50.2623 14.6604 49.4269 15.4912C49.0271 15.8889 48.486 16.1121 47.922 16.112H47.9156C46.7375 16.1059 45.7872 15.1459 45.7933 13.9676C45.7963 13.4036 46.0224 12.8639 46.4223 12.4661H46.4181V12.4661ZM43.9072 19.4752L42.7104 25.3664L40.3595 23.0016L43.9072 19.4752ZM42.6955 17.6715L38.8555 21.4891L35.8848 18.5024L42.6955 17.6715ZM47.8667 57.6C49.634 57.6 51.0667 59.0327 51.0667 60.8V61.8667H4.13333V60.8C4.13333 59.0327 5.566 57.6 7.33333 57.6H47.8667ZM32.9333 53.3333V55.4667H22.2667V53.3333H32.9333ZM22.2667 51.2V43.0933C22.2667 40.5056 24.6592 38.4 27.6 38.4C30.5408 38.4 32.9333 40.5056 32.9333 43.0933V51.2H22.2667ZM35.0667 47.808V43.0933C35.0667 39.3291 31.7173 36.2667 27.6 36.2667C24.9379 36.2259 22.4485 37.5809 21.0379 39.8389C12.9224 31.2913 11.0949 18.5485 16.4807 8.06467L53.6843 45.4816C47.9395 48.404 41.354 49.2268 35.0667 47.808ZM57.6448 46.4405L56.1419 44.9291L17.04 5.59147L15.5307 4.07893L17.04 2.57493L32.9099 18.5344C32.9173 18.5344 32.9216 18.5483 32.9291 18.5536L59.1584 44.9365L57.6448 46.4405Z" fill="#2E2F42"/>
<path d="M27.6096 40.5333H27.6C25.8327 40.5306 24.3979 41.9612 24.3952 43.7285C24.3925 45.4958 25.8231 46.9306 27.5904 46.9333H27.6C29.3673 46.936 30.8021 45.5054 30.8048 43.7381C30.8075 41.9708 29.3769 40.536 27.6096 40.5333ZM28.3563 44.4896C28.1555 44.6893 27.8833 44.801 27.6 44.8C27.0109 44.7969 26.5359 44.3169 26.5389 43.7278C26.5404 43.4458 26.6535 43.176 26.8533 42.977C27.0519 42.7796 27.32 42.6681 27.6 42.6666C28.1891 42.6697 28.6641 43.1497 28.6611 43.7388C28.6596 44.0208 28.5465 44.2906 28.3467 44.4896H28.3563Z" fill="#4D5AE5"/>
</svg>
